<svg width="469" height="91" viewBox="0 0 469 91" fill="none" xmlns="http://www.w3.org/2000/svg">
<path d="M197.991 23.9126C198.238 23.1028 198.425 22.299 198.554 21.5368L198.566 21.4475C198.701 20.6377 198.789 19.8041 198.818 18.9645C198.83 18.7145 198.836 18.4822 198.836 18.2679V18.2262C198.836 18.0059 198.836 17.7796 198.824 17.5593C198.795 16.6721 198.718 15.8385 198.59 15.0764L198.572 14.9632C198.449 14.1713 198.273 13.4032 198.038 12.6113C197.552 10.9738 196.854 9.41975 195.963 7.99071C193.483 4.02513 189.584 1.22659 185.263 0.333442C184.219 0.113132 183.135 0.00595433 182.056 0.00595433H136.366L136.349 25.0141V50.0223H147.957L148.057 38.9473C148.069 37.6611 149.059 36.6191 150.261 36.6191H181.81C182.003 36.6191 182.191 36.6191 182.361 36.6013C183.24 36.5774 184.137 36.4643 185.04 36.2797C191.091 35.0174 196.051 30.2837 197.986 23.9185L197.991 23.9126ZM181.147 26.2229C180.79 26.3003 180.391 26.3479 179.981 26.3658H179.928C179.863 26.3658 179.787 26.3717 179.711 26.3717H150.226C149.007 26.3717 148.022 25.3119 148.022 24.0138V12.522C148.022 11.2239 149.012 10.17 150.226 10.17H179.787C180.256 10.17 180.737 10.2176 181.218 10.3188C183.158 10.7178 184.9 11.9622 186.008 13.7366C186.406 14.3737 186.717 15.0645 186.928 15.7909C187.022 16.1184 187.104 16.4697 187.163 16.8627L187.18 16.9877C187.227 17.2973 187.256 17.6189 187.268 17.9404C187.268 18.0118 187.268 18.0892 187.268 18.1667V18.4048C187.268 18.4584 187.262 18.512 187.256 18.5596C187.245 18.905 187.215 19.2325 187.169 19.5659L187.145 19.6969C187.092 20.0304 187.004 20.3876 186.899 20.7568C186.043 23.5732 183.838 25.6691 181.147 26.2288V26.2229ZM117.828 30.9804C117.828 33.2847 117.018 35.458 115.541 37.1014C114.011 38.7984 111.959 39.7332 109.76 39.7332H88.2255C86.0269 39.7332 83.9749 38.7984 82.4447 37.1074C80.9672 35.464 80.1581 33.2906 80.1581 30.9863V0H68.3443V38.1375C68.3443 38.2566 68.3443 38.3756 68.356 38.4888C68.4322 41.4957 69.5286 44.3121 71.4399 46.4378C73.5095 48.7481 76.312 50.0164 79.3197 50.0164H118.678C121.685 50.0164 124.488 48.7421 126.557 46.4378C128.469 44.3121 129.565 41.4957 129.641 38.5126C129.647 38.3756 129.647 38.2566 129.647 38.1375V0H117.833V30.9804H117.828ZM442.711 4.98973C441.913 3.65 440.875 2.42937 439.621 1.36354C438.636 0.518026 437.387 0.0774063 435.827 0.0119087C434.268 0.0774063 433.025 0.518026 432.034 1.36354C430.785 2.42937 429.748 3.65 428.944 4.98973L402.643 49.9806H415.331L420.173 41.6684H451.464L456.307 49.9806H469L442.699 4.98973H442.711ZM426.183 31.3793L432.89 19.8696C432.89 19.8696 432.902 19.8458 432.914 19.8339C434.174 17.7141 437.493 17.7141 438.747 19.8339C438.753 19.8458 438.759 19.8577 438.765 19.8696L445.472 31.3793H426.183ZM368.902 32.4035C368.509 33.1358 367.817 33.5705 367.038 33.5705C366.258 33.5705 365.566 33.1358 365.173 32.4035L347.866 0H335.513V50.0164H347.795L347.52 28.4319C347.502 27.3482 348.135 26.4253 349.091 26.1335C350.047 25.8418 351.026 26.2705 351.53 27.2053L361.157 44.985C361.908 46.3306 362.863 47.5751 364.001 48.6647C364.821 49.4447 365.812 49.8735 367.032 49.9866C368.251 49.8735 369.242 49.4447 370.063 48.6647C371.194 47.5751 372.156 46.3366 372.906 44.979L382.533 27.2053C383.038 26.2705 384.017 25.8418 384.972 26.1335C385.928 26.4253 386.561 27.3482 386.544 28.4319L386.268 50.0164H398.234H398.551V0H386.198L368.884 32.4035H368.902ZM283.842 0.0119087C281.04 0.13695 278.396 1.40522 276.414 3.5726C274.386 5.79952 273.254 8.74691 273.225 11.867L273.324 38.0422C273.442 44.3181 278.062 49.5698 283.854 49.9866L284.64 50.0164H328.63V39.6499H287.173C285.988 39.6499 285.021 38.6019 285.015 37.3098L284.986 32.4868C284.986 31.8557 285.209 31.2602 285.613 30.8136C286.024 30.3671 286.563 30.117 287.143 30.117H321.828V19.8279H287.055C285.871 19.8279 284.904 18.78 284.898 17.4879L284.874 12.6589C284.874 12.0277 285.097 11.4323 285.502 10.9857C285.912 10.5392 286.452 10.2891 287.032 10.2891H328.624V0H284.335L283.831 0.0119087H283.842ZM217.468 38.9651C217.468 37.6671 218.436 36.6132 219.626 36.6132H244.954C245.675 36.6132 246.349 37.0061 246.748 37.6611L254.287 50.0164H265.814L256.82 35.3151L258.468 34.3327C262.267 32.0581 265.087 28.3545 266.406 23.9126C266.635 23.1207 266.817 22.3228 266.946 21.5487L266.957 21.4654C267.086 20.6437 267.162 19.8101 267.192 18.9764C267.203 18.7442 267.203 18.5061 267.203 18.2798C267.203 17.9999 267.203 17.7856 267.192 17.5831C267.157 16.7019 267.069 15.8683 266.94 15.1002L266.916 14.9692C266.787 14.1892 266.605 13.427 266.371 12.641C265.873 11.0036 265.163 9.44952 264.26 8.02048C261.745 4.03703 257.811 1.2385 253.461 0.333442C252.405 0.113132 251.321 0 250.224 0H204.834V50.0164H217.462V38.9651H217.468ZM217.468 12.522C217.468 11.2239 218.436 10.17 219.626 10.17H248.067C248.53 10.17 249.005 10.2176 249.48 10.3129C251.403 10.7118 253.132 11.9503 254.246 13.7128C254.651 14.3499 254.968 15.0406 255.179 15.7671C255.278 16.0886 255.36 16.4459 255.431 16.8388L255.448 16.9758C255.495 17.2914 255.53 17.6129 255.536 17.9225C255.536 17.988 255.542 18.0595 255.542 18.125V18.387C255.542 18.387 255.542 18.4465 255.542 18.4763V18.5299C255.536 18.8752 255.501 19.2146 255.448 19.554L255.431 19.6731C255.372 20.0423 255.29 20.4055 255.184 20.7508C254.352 23.5553 252.171 25.6512 249.497 26.2169C249.128 26.2943 248.741 26.3419 248.342 26.3598C248.272 26.3598 248.172 26.3658 248.079 26.3658H219.626C218.436 26.3658 217.468 25.3118 217.468 24.0079V12.516V12.522ZM61.6781 32.2189C61.3791 30.1289 60.6873 28.1759 59.6085 26.4134C57.0992 22.2871 52.8485 19.822 48.2344 19.822H16.041C15.7948 19.822 15.5544 19.7981 15.2964 19.7565C13.1271 19.3516 11.6028 17.333 11.6614 14.9454C11.6907 13.7962 12.0894 12.6946 12.7871 11.8372C13.4789 10.9917 14.4111 10.426 15.4195 10.2355C15.6951 10.1879 15.9355 10.17 16.1759 10.17H61.813V0H14.3349C14.1766 0 14.0183 0 13.8659 0.0119087C7.34626 0.250082 1.64749 5.43035 0.29901 12.3314L0.281421 12.4326C0.117259 13.296 0.0175888 14.1713 0 15.0347V15.8683C0.00586294 16.4399 0.0586294 17.0472 0.140711 17.6605L0.152436 17.7677C0.615609 21.0307 2.12238 24.0674 4.39134 26.2943C6.8655 28.7177 10.1018 30.0515 13.5024 30.0515H45.7544C45.9948 30.0515 46.2351 30.0753 46.4931 30.117C48.123 30.4207 49.4422 31.6651 49.9347 33.374C50.0636 33.8027 50.1281 34.2433 50.1399 34.6959C50.1399 34.7554 50.1399 34.809 50.1399 34.8745V34.9579C50.1399 35.0234 50.134 35.0889 50.1281 35.1484C49.9933 37.3813 48.4162 39.2807 46.3759 39.6558C46.1062 39.7035 45.8658 39.7213 45.6254 39.7213H0.00586294V50.0104H47.5367C47.695 50.0104 47.8533 50.0104 48.0116 49.9985C54.6074 49.7603 60.3121 44.4967 61.5843 37.4765C61.7074 36.7977 61.7837 36.113 61.8247 35.4223C61.8306 35.2377 61.8423 35.0472 61.8423 34.8507V34.8328C61.8423 34.6304 61.8423 34.4398 61.8423 34.2433C61.8423 34.029 61.8247 33.8206 61.8188 33.6062C61.7954 33.1418 61.7426 32.6654 61.6781 32.201V32.2189ZM211.822 78.6983C212.033 77.8826 212.139 76.6084 212.139 74.8697C212.139 72.8036 211.975 71.2912 211.64 70.3325C211.306 69.3679 210.691 68.6177 209.799 68.0699C209.055 67.6054 208.281 67.3315 207.478 67.2541C206.674 67.1767 204.241 67.135 200.178 67.1231H182.871V90.994H190.035V84.9266H200.126C201.609 84.9266 202.582 84.9623 203.045 85.0397C203.508 85.1171 203.872 85.2958 204.136 85.5756C204.4 85.8793 204.581 86.3139 204.681 86.8796C204.781 87.4453 204.828 88.392 204.828 89.7198V90.994H211.887V88.7731C211.887 86.7069 211.834 85.3553 211.734 84.7063C211.629 84.0573 211.388 83.5094 211.013 83.051C210.356 82.2948 209.278 81.8541 207.777 81.741C209.049 81.5445 210.005 81.1813 210.638 80.6573C211.224 80.1691 211.623 79.5141 211.834 78.6983H211.822ZM204.769 77.7099C204.64 78.1029 204.423 78.3947 204.112 78.5912C203.872 78.74 203.579 78.8353 203.245 78.8651C202.905 78.8948 201.861 78.9246 200.102 78.9604H190.03V73.0834H200.085C201.738 73.0953 202.74 73.1132 203.086 73.137C203.438 73.1608 203.737 73.2323 203.989 73.3454C204.347 73.5181 204.593 73.7979 204.74 74.185C204.88 74.572 204.957 75.1496 204.957 75.9355C204.957 76.7215 204.892 77.3229 204.769 77.7099ZM303.102 67.1231H295.58V90.994H319.823V84.9087H303.102V67.1231ZM283.532 90.994H291.054V67.1231H283.532V90.994ZM177.436 79.6451C176.932 79.2938 176.158 79.0258 175.114 78.8413C176.299 78.49 177.119 77.9124 177.583 77.1086C178.046 76.3047 178.28 75.0484 178.28 73.3335C178.28 71.8985 178.128 70.7731 177.823 69.9514C177.518 69.1298 177.014 68.4986 176.316 68.052C175.595 67.5876 174.464 67.3077 172.922 67.2125C172.241 67.1648 170.107 67.135 166.519 67.1231H149.628V90.994H166.572C170.524 90.9702 172.904 90.9286 173.719 90.869C174.968 90.7737 175.941 90.5832 176.627 90.2855C177.313 89.9878 177.858 89.5233 178.263 88.8981C178.861 87.9633 179.16 86.5283 179.16 84.5812C179.16 82.0745 178.585 80.4311 177.436 79.651V79.6451ZM156.447 72.7381H166.537C168.8 72.75 170.06 72.7917 170.324 72.8631C171.004 73.0477 171.339 73.6134 171.339 74.5601C171.339 75.5068 171.057 76.0546 170.494 76.2749C170.072 76.4476 168.747 76.5369 166.537 76.5369H156.447V72.744V72.7381ZM171.292 85.0159C171.028 85.1231 170.7 85.1826 170.313 85.2064C169.92 85.2303 168.677 85.2481 166.578 85.26H156.453V81.3064H166.578C169.38 81.3183 170.905 81.3599 171.157 81.4314C171.866 81.6041 172.224 82.1935 172.224 83.1998C172.224 84.2061 171.913 84.7718 171.292 85.0159ZM279.428 72.6011V67.1291H251.221V73.0894L267.837 72.8631L250.84 85.4208V91H279.938V85.0397L262.202 85.266L279.422 72.6071L279.428 72.6011ZM226.075 67.1291L213.61 91H221.789L223.806 86.963H239.355L241.371 91H249.497L237.203 67.1291H226.081H226.075ZM226.351 81.7291L230.877 72.6904H232.307L236.833 81.7291H226.345H226.351Z" fill="white"/>
</svg>
