<svg width="115" height="116" viewBox="0 0 115 116" fill="none" xmlns="http://www.w3.org/2000/svg">
<path d="M114.62 103.22L101.222 89.8209L106.914 84.1284C107.223 83.8198 107.353 83.3813 107.255 82.9591C107.166 82.5368 106.857 82.1876 106.459 82.0415L69.9661 68.5615C69.5033 68.391 68.9835 68.5047 68.6344 68.8538C68.2852 69.203 68.1715 69.7227 68.342 70.1856L81.822 106.679C81.9681 107.085 82.3173 107.385 82.7396 107.475C83.1619 107.564 83.6004 107.442 83.9089 107.134L89.6014 101.441L103 114.84C103.236 115.075 103.56 115.214 103.893 115.214C104.226 115.214 104.551 115.084 104.787 114.84L114.629 104.998C115.124 104.503 115.124 103.699 114.629 103.203L114.62 103.22ZM103.885 112.16L90.4865 98.7615C90.251 98.526 89.9262 98.3879 89.5933 98.3879C89.2603 98.3879 88.9355 98.5179 88.7 98.7615L83.511 103.95L71.6714 71.8909L103.731 83.7305L98.542 88.9195C98.0466 89.4148 98.0466 90.2188 98.542 90.7141L111.941 104.113L103.893 112.16H103.885Z" fill="#EFA144"/>
<path d="M63.5913 57.7686C63.5913 48.6087 57.9476 44.8327 52.4906 41.1785C48.3979 38.4419 44.1672 35.6078 42.1776 30.3783C41.9909 29.8829 41.5199 29.5581 40.9921 29.5581C40.4642 29.5581 39.9932 29.8829 39.8065 30.3783C37.817 35.6078 33.5862 38.4338 29.4935 41.1785C24.0365 44.8327 18.3928 48.6087 18.3928 57.7686C18.3928 65.0364 24.3045 70.9481 31.5723 70.9481C34.3252 70.9481 36.9318 70.1035 39.1162 68.5769C38.2149 72.0281 35.9736 77.3551 30.4111 81.4072C29.9645 81.732 29.7858 82.3005 29.9482 82.8283C30.1188 83.348 30.606 83.7053 31.1501 83.7053H50.7934C51.3456 83.7053 51.8329 83.348 51.9953 82.8283C52.1658 82.3086 51.979 81.732 51.5324 81.4072C45.9699 77.347 43.7286 72.0281 42.8273 68.5769C45.0117 70.1117 47.6265 70.9481 50.3712 70.9481C57.639 70.9481 63.5507 65.0364 63.5507 57.7686H63.5913ZM20.9345 57.7686C20.9345 49.9567 25.5551 46.8628 30.9064 43.2898C34.6581 40.7806 38.5153 38.1983 40.9921 33.8132C43.4688 38.1901 47.326 40.7806 51.0777 43.2898C56.429 46.8709 61.0496 49.9648 61.0496 57.7686C61.0496 63.6397 56.2747 68.4145 50.4037 68.4145C47.0986 68.4145 44.0291 66.9122 41.9909 64.2893C41.7473 63.9807 41.3818 63.8021 40.9921 63.8021C40.6023 63.8021 40.2287 63.9807 39.9932 64.2893C37.955 66.9122 34.8936 68.4145 31.5804 68.4145C25.7094 68.4145 20.9345 63.6397 20.9345 57.7686ZM47.3341 81.1717H34.6581C38.0768 77.8829 39.9608 74.245 40.9921 71.2566C42.0315 74.2369 43.9073 77.8829 47.326 81.1717H47.3341Z" fill="#EFA144"/>
<path d="M73.888 108.303H8.10421C5.03468 108.303 2.53358 105.801 2.53358 102.732V8.10421C2.53358 5.03468 5.03468 2.53358 8.10421 2.53358H73.888C76.9576 2.53358 79.4587 5.03468 79.4587 8.10421V63.1041C79.4587 63.8024 80.0271 64.3708 80.7255 64.3708C81.4238 64.3708 81.9922 63.8024 81.9922 63.1041V8.10421C81.9922 5.94417 81.1396 3.98714 79.7591 2.53358H88.18C91.2496 2.53358 93.7507 5.03468 93.7507 8.10421V68.6341C93.7507 69.3325 94.3191 69.9009 95.0175 69.9009C95.7158 69.9009 96.2842 69.3325 96.2842 68.6341V8.10421C96.2842 5.94417 95.4316 3.98714 94.0511 2.53358H102.724C105.793 2.53358 108.294 5.03468 108.294 8.10421V73.75C108.294 74.4483 108.863 75.0168 109.561 75.0168C110.26 75.0168 110.828 74.4483 110.828 73.75V8.10421C110.828 3.62984 107.19 0 102.724 0H8.10421C3.63796 0 0 3.63796 0 8.10421V102.724C0 107.198 3.63796 110.828 8.10421 110.828H73.888C74.5864 110.828 75.1548 110.26 75.1548 109.561C75.1548 108.863 74.5864 108.294 73.888 108.294V108.303Z" fill="#EFA144"/>
</svg>
