<svg width="114" height="112" viewBox="0 0 114 112" fill="none" xmlns="http://www.w3.org/2000/svg">
<path d="M112.335 31.178H103.458V18.0463H110.385C111.061 18.0463 111.612 17.4958 111.612 16.8196V1.22667C111.612 0.550431 111.061 0 110.385 0H49.8536C49.1773 0 48.6269 0.550431 48.6269 1.22667V15.5851H41.6993C41.0231 15.5851 40.4727 16.1355 40.4727 16.8117V32.4047C40.4727 33.0809 41.0231 33.6313 41.6993 33.6313H111.117V46.763H68.1357C67.4595 46.763 66.9091 47.3135 66.9091 47.9897C66.9091 48.666 67.4595 49.2164 68.1357 49.2164H111.117V62.3481H76.6753C75.999 62.3481 75.4486 62.8985 75.4486 63.5748C75.4486 64.251 75.999 64.8015 76.6753 64.8015H102.137V77.9332H78.3108C77.6346 77.9332 77.0842 78.4836 77.0842 79.1598C77.0842 79.8361 77.6346 80.3865 78.3108 80.3865H109.174V93.5182H73.9782C73.3019 93.5182 72.7515 94.0686 72.7515 94.7449C72.7515 95.4211 73.3019 95.9716 73.9782 95.9716H102.137V109.103H60.7049C60.0287 109.103 59.4782 109.654 59.4782 110.33C59.4782 111.006 60.0287 111.557 60.7049 111.557H103.363C104.04 111.557 104.59 111.006 104.59 110.33V95.9716H110.401C111.077 95.9716 111.628 95.4211 111.628 94.7449V79.1598C111.628 78.4836 111.077 77.9332 110.401 77.9332H104.59V64.8015H112.343C113.019 64.8015 113.57 64.251 113.57 63.5748V32.3968C113.57 31.7206 113.019 31.1701 112.343 31.1701L112.335 31.178ZM51.0802 2.45335H109.159V15.5851H51.0802V2.45335ZM42.9181 31.178V18.0463H100.996V31.178H42.9181Z" fill="#EFA144"/>
<path d="M71.6347 75.7626C71.6347 56.01 55.5699 39.9453 35.8173 39.9453C16.0647 39.9453 0 56.01 0 75.7626C0 95.5152 16.0647 111.58 35.8173 111.58C55.5699 111.58 71.6347 95.5152 71.6347 75.7626ZM44.3333 101.885C47.0776 100.996 49.6489 99.6907 51.9764 98.0001C54.3039 96.3094 56.3405 94.2728 58.0312 91.9296L62.9064 95.2007C58.7624 100.957 52.8335 105.352 45.9374 107.554L44.3333 101.885ZM69.1813 75.7626C69.1813 75.8334 69.1813 75.8963 69.1813 75.9671L63.2996 75.7391C63.2996 72.8532 62.8514 70.0067 61.9628 67.2703C61.0743 64.5339 59.7611 61.9704 58.0626 59.635L62.6862 56.0022C66.7673 61.5379 69.1892 68.3711 69.1892 75.7626H69.1813ZM35.8173 42.3987C39.4816 42.3987 43.0123 43.0041 46.3148 44.0971L44.2861 49.625C41.5418 48.7286 38.6953 48.2804 35.8173 48.2804C32.9394 48.2804 30.0928 48.7365 27.3486 49.625L25.3198 44.0971C28.6224 42.9963 32.153 42.3987 35.8173 42.3987ZM2.45335 75.7626C2.45335 68.3711 4.87525 61.5379 8.9563 56.0022L13.5799 59.635C11.8814 61.9704 10.5683 64.5339 9.67972 67.2703C8.79117 70.0067 8.34296 72.8532 8.34296 75.7391L2.46121 75.9592C2.46121 75.8885 2.46121 75.8255 2.46121 75.7626H2.45335ZM25.6973 107.546C18.7933 105.344 12.8722 100.957 8.72826 95.1928L13.6035 91.9217C15.302 94.2571 17.3307 96.2937 19.6582 97.9922C21.9858 99.6828 24.5492 100.988 27.3014 101.877L25.6894 107.546H25.6973ZM28.0641 108.199L29.9985 101.381C30.085 101.067 30.0457 100.729 29.8884 100.446C29.7311 100.162 29.4638 99.9501 29.1414 99.8637C26.232 99.0616 23.527 97.7641 21.1051 96.0028C18.6832 94.2414 16.6152 92.0711 14.9481 89.5549C14.7673 89.2797 14.4842 89.0909 14.1618 89.028C13.8394 88.9651 13.5091 89.028 13.2339 89.2089L7.35219 93.1484C4.67866 88.7921 2.98805 83.7753 2.56344 78.4047L9.64041 78.1374C9.97066 78.1216 10.2773 77.9801 10.4975 77.7442C10.7177 77.5004 10.8356 77.1859 10.8199 76.8556C10.6862 73.8361 11.0873 70.8638 12.0073 68.0173C12.9351 65.1708 14.3584 62.5287 16.2377 60.1697C16.4422 59.9102 16.5365 59.5878 16.4972 59.2654C16.4579 58.943 16.2928 58.6442 16.0333 58.4398L10.4739 54.0678C13.8551 50.1204 18.1328 46.9672 23.0002 44.9385L25.4456 51.5909C25.5557 51.8975 25.7916 52.1492 26.0826 52.2828C26.2477 52.3536 26.4207 52.3929 26.5937 52.3929C26.7431 52.3929 26.8846 52.3693 27.0262 52.3143C32.6799 50.1912 38.9155 50.1912 44.5692 52.3143C44.8759 52.4322 45.214 52.4165 45.5128 52.2828C45.8116 52.1492 46.0396 51.8975 46.1497 51.5909L48.5952 44.9385C53.4626 46.9672 57.7402 50.1204 61.1214 54.0678L55.5621 58.4398C55.3026 58.6442 55.1375 58.9352 55.0981 59.2654C55.0588 59.5878 55.1532 59.9181 55.3576 60.1697C57.2448 62.5287 58.6681 65.1708 59.5881 68.0173C60.516 70.8638 60.9091 73.8361 60.7754 76.8556C60.7597 77.1859 60.8777 77.5004 61.0978 77.7442C61.318 77.988 61.6247 78.1295 61.9549 78.1374L69.0319 78.4047C68.6073 83.7753 66.9167 88.7921 64.2432 93.1484L58.3614 89.2089C58.0862 89.028 57.7559 88.9651 57.4335 89.028C57.1111 89.0909 56.8281 89.2797 56.6551 89.5549C54.9959 92.0711 52.92 94.2414 50.4981 96.0028C48.0762 97.7641 45.3712 99.0616 42.4618 99.8637C42.1473 99.9501 41.8799 100.162 41.7148 100.446C41.5575 100.729 41.5104 101.067 41.6047 101.381L43.5391 108.199C41.0464 108.796 38.4594 109.119 35.7859 109.119C33.1124 109.119 30.5253 108.796 28.0327 108.199H28.0641Z" fill="#EFA144"/>
<path d="M54.9094 75.7633C54.9094 64.8805 46.0553 56.0186 35.1647 56.0186C24.274 56.0186 15.4199 64.8726 15.4199 75.7633C15.4199 86.654 24.274 95.508 35.1647 95.508C46.0553 95.508 54.9094 86.654 54.9094 75.7633ZM35.1647 93.0468C25.6343 93.0468 17.8811 85.2936 17.8811 75.7633C17.8811 66.233 25.6343 58.4798 35.1647 58.4798C44.695 58.4798 52.4482 66.233 52.4482 75.7633C52.4482 85.2936 44.695 93.0468 35.1647 93.0468Z" fill="#EFA144"/>
</svg>
