<svg width="131" height="131" viewBox="0 0 131 131" fill="none" xmlns="http://www.w3.org/2000/svg">
<path fill-rule="evenodd" clip-rule="evenodd" d="M65.25 0C47.9446 0 31.348 6.87453 19.1113 19.1113C12.3602 25.8624 7.24123 33.9405 4.0084 42.7326C3.51538 42.9001 3.16064 43.3669 3.16064 43.9165C3.16064 44.1643 3.23278 44.3953 3.35719 44.5896C1.15372 51.1901 0 58.1606 0 65.25C0 72.3394 1.15372 79.3099 3.35719 85.9104C3.23278 86.1047 3.16064 86.3357 3.16064 86.5835C3.16064 87.1331 3.51538 87.5999 4.0084 87.7674C7.24123 96.5595 12.3602 104.638 19.1113 111.389C31.348 123.625 47.9446 130.5 65.25 130.5C73.8187 130.5 82.3036 128.812 90.2201 125.533C98.1366 122.254 105.33 117.448 111.389 111.389C117.448 105.33 122.254 98.1366 125.533 90.2201C128.812 82.3036 130.5 73.8187 130.5 65.25C130.5 56.6812 128.812 48.1964 125.533 40.2799C122.254 32.3634 117.448 25.1703 111.389 19.1113C105.33 13.0523 98.1366 8.24598 90.2201 4.96686C82.3036 1.68774 73.8188 0 65.25 0ZM20.879 109.621C14.6251 103.367 9.82754 95.9288 6.70473 87.8335H38.9314C40.3079 96.1569 42.4251 103.65 45.1061 109.879C47.5768 115.621 50.551 120.347 53.9172 123.655C55.7553 125.462 57.73 126.863 59.8153 127.764C45.1645 126.491 31.3591 120.101 20.879 109.621ZM70.6858 127.764C77.0633 127.21 83.3294 125.681 89.2634 123.223C96.8766 120.07 103.794 115.448 109.621 109.621C115.448 103.794 120.07 96.8766 123.223 89.2634C123.42 88.7888 123.611 88.3122 123.795 87.8335H91.569C90.1925 96.1586 88.0751 103.652 85.3938 109.882C82.923 115.623 79.9488 120.348 76.5826 123.656C74.7448 125.462 72.7705 126.863 70.6858 127.764ZM91.9563 85.3335H124.699C126.882 78.8721 128 72.0888 128 65.25C128 58.4112 126.882 51.6279 124.699 45.1665H91.9569C92.8707 51.4825 93.3641 58.2352 93.3641 65.2463C93.3641 72.2603 92.8705 79.0155 91.9563 85.3335ZM89.4304 45.1665C90.3585 51.4526 90.8641 58.2073 90.8641 65.2463C90.8641 72.2882 90.3583 79.0453 89.4298 85.3335H41.0705C40.1418 79.045 39.6357 72.2877 39.6357 65.2463C39.6357 58.2073 40.1414 51.4526 41.0695 45.1665H89.4304ZM91.5696 42.6665H123.795C123.611 42.1878 123.42 41.7112 123.223 41.2366C120.07 33.6234 115.448 26.7059 109.621 20.879C103.794 15.0522 96.8766 10.43 89.2634 7.27656C83.3297 4.81874 77.0639 3.29058 70.6868 2.73596C72.7711 3.63684 74.7451 5.03759 76.5826 6.84329C79.9488 10.1512 82.923 14.8762 85.3938 20.6167C88.0754 26.847 90.1931 34.3411 91.5696 42.6665ZM59.8136 2.73577C45.1635 4.00925 31.3587 10.3994 20.879 20.879C14.6251 27.133 9.82753 34.5712 6.70473 42.6665H38.9303C40.3068 34.3411 42.4245 26.847 45.1061 20.6167C47.5769 14.8762 50.5511 10.1512 53.9173 6.84329C55.7549 5.03747 57.729 3.63665 59.8136 2.73577ZM41.465 42.6665C42.8131 34.6832 44.8527 27.5289 47.4024 21.605C49.7932 16.0505 52.6078 11.6352 55.6695 8.62642C58.7257 5.62311 61.9617 4.08008 65.2499 4.08008C68.5382 4.08008 71.7741 5.62311 74.8304 8.62642C77.8921 11.6352 80.7067 16.0505 83.0975 21.605C85.6472 27.5289 87.6868 34.6832 89.0349 42.6665H41.465ZM38.543 45.1665H5.80068C3.6347 51.5776 2.5 58.3553 2.5 65.25C2.5 72.1447 3.6347 78.9224 5.80068 85.3335H38.544C37.6295 79.0151 37.1357 72.2599 37.1357 65.2463C37.1357 58.2352 37.6292 51.4825 38.543 45.1665ZM41.4661 87.8335H89.0343C87.6862 95.8165 85.6468 102.97 83.0974 108.894C80.7067 114.449 77.8921 118.864 74.8303 121.873C71.7741 124.877 68.5382 126.42 65.2499 126.42C61.9618 126.42 58.7259 124.876 55.6696 121.872C52.6078 118.863 49.7932 114.447 47.4025 108.891C44.8534 102.968 42.8142 95.8149 41.4661 87.8335Z" fill="#EFA144"/>
</svg>
